<?xml version="1.0" standalone="no"?><!DOCTYPE svg PUBLIC "-//W3C//DTD SVG 1.1//EN" "http://www.w3.org/Graphics/SVG/1.1/DTD/svg11.dtd"><svg t="1607181599050" class="icon" viewBox="0 0 1024 1024" version="1.1" xmlns="http://www.w3.org/2000/svg" p-id="39743" xmlns:xlink="http://www.w3.org/1999/xlink" width="200" height="200"><defs><style type="text/css"></style></defs><path d="M531.318998 941.220668 848.304466 623.684662c0 0 28.66997-24.352641 28.6669-59.263755L876.971365 368.992959l-38.585807 22.051225 0 105.295138c0 0 2.122337 36.283368-43.002396 78.006632-41.345664 40.515762-315.432089 315.055512-315.432089 315.055512L531.318998 941.220668 531.318998 941.220668zM620.832707 357.019253c0 0 63.102177-273.712919 188.534957-277.607622 123.981732-3.847631 150.542668 90.806145 147.376559 150.261259-3.770883 70.847581-73.705676 123.996059-118.359688 132.266419 0-35.649941 0.200568-50.126654 0.200568-50.126654s73.03848-19.565615 73.320912-83.792405c0.213871-49.64263-27.288506-114.101711-102.538351-105.851816-88.816838 9.743922-152.153352 259.656785-152.153352 259.656785l-13.231349 13.231349-23.155373-38.038338L620.832707 357.01823zM751.747339 215.183897l34.815947 0 0 271.230378c0.839111 23.052019-26.457582 51.265594-26.457582 51.265594L356.568998 937.913343 62.182224 640.219243c0 0 358.883717-357.226984 398.576741-396.921032 28.114314-28.114314 46.304605-28.114314 46.304605-28.114314l210.505341 0-48.16293 121.828696 5.160533 23.600511c2.020006 9.226129 1.26583 25.063839 1.26583 25.063839-4.907777 20.305465-23.189142 35.394115-45.005007 35.394115-25.577538 0-47.413869-21.837354-47.413869-47.413869 0-13.06455 14.519692-40.063461 36.741809-44.546565l13.612019-44.581358c-59.542094 12.128225-91.148953 50.243311-91.148953 90.233094 0 49.120744 39.822984 88.943728 88.944751 88.943728s88.943728-39.822984 88.943728-88.943728c-1.103124-17.45965-2.75474-20.767999-8.618285-38.792515-4.797259-15.879666 23.903409-84.509742 23.903409-84.509742L751.747339 215.183897zM751.747339 215.183897" p-id="39744" fill="#004853"></path></svg>