<?xml version="1.0" standalone="no"?><!DOCTYPE svg PUBLIC "-//W3C//DTD SVG 1.1//EN" "http://www.w3.org/Graphics/SVG/1.1/DTD/svg11.dtd"><svg t="1607363541486" class="icon" viewBox="0 0 1024 1024" version="1.1" xmlns="http://www.w3.org/2000/svg" p-id="3802" xmlns:xlink="http://www.w3.org/1999/xlink" width="200" height="200"><defs><style type="text/css"></style></defs><path d="M510.6288 1022.272A508.48 508.48 0 0 1 0.0048 511.616 508.48 508.48 0 0 1 510.6288 0.992a508.48 508.48 0 0 1 510.624 510.624 508.48 508.48 0 0 1-510.624 510.656z m0-907.808c-221.28 0-397.12 175.904-397.12 397.152 0 221.28 175.84 397.184 397.12 397.184s397.152-175.904 397.152-397.184c0-221.248-175.872-397.12-397.12-397.12z" fill="#2c2c2c" p-id="3803"></path><path d="M605.2848 704L448.0048 546.208V288h95.328v219.968L672.0048 637.056z" fill="#2c2c2c" p-id="3804" data-spm-anchor-id="a313x.7781069.0.i6" class="selected"></path></svg>