<?xml version="1.0" standalone="no"?><!DOCTYPE svg PUBLIC "-//W3C//DTD SVG 1.1//EN" "http://www.w3.org/Graphics/SVG/1.1/DTD/svg11.dtd"><svg t="1592477130402" class="icon" viewBox="0 0 1024 1024" version="1.1" xmlns="http://www.w3.org/2000/svg" p-id="1489" xmlns:xlink="http://www.w3.org/1999/xlink" width="200" height="200"><defs><style type="text/css"></style></defs><path d="M394.752 325.3248c-2.1504 8.9088-3.2768 21.0944-5.632 33.3824a77.312 77.312 0 0 1-13.6192 33.792 134.144 134.144 0 0 1-22.016 26.7264 141.824 141.824 0 0 1-44.7488 28.3648 181.3504 181.3504 0 0 1-143.36-12.1856 113.4592 113.4592 0 0 1-44.2368-52.5312 133.12 133.12 0 0 1-9.216-33.3824 137.8304 137.8304 0 0 1 15.9744-84.8896 146.7392 146.7392 0 0 1 17.2032-25.088c30.72-39.7312 81.92-49.9712 133.12-49.9712 61.44 0 92.16 51.2 112.0256 100.0448a129.2288 129.2288 0 0 1 4.5056 35.7376zM913.408 336.0768c-0.7168 48.128-31.4368 78.848-64.8192 107.1104A108.032 108.032 0 0 1 819.2 456.704a82.8416 82.8416 0 0 1-30.72 2.8672 148.2752 148.2752 0 0 1-34.0992-2.9696 160.0512 160.0512 0 0 1-34.304-11.264A143.36 143.36 0 0 1 693.9648 430.08a132.3008 132.3008 0 0 1-49.7664-69.5296 124.928 124.928 0 0 1-5.0176-35.1232 158.6176 158.6176 0 0 1 20.992-66.1504 142.4384 142.4384 0 0 1 19.8656-26.0096 99.6352 99.6352 0 0 1 29.184-23.7568 92.8768 92.8768 0 0 1 30.72-9.5232c70.0416-10.24 151.9616 20.48 167.5264 102.4a117.248 117.248 0 0 1 5.9392 33.6896z" fill="#136CA8" p-id="1490"></path><path d="M847.7696 476.4672c10.24 25.088 8.2944 50.4832 8.6016 75.4688a225.8944 225.8944 0 0 1-2.7648 37.1712 250.5728 250.5728 0 0 1-8.4992 36.2496c-4.3008 11.4688-11.4688 33.3824-16.9984 44.2368C786.3296 755.8144 716.8 816.8448 612.5568 823.7056q-14.5408 3.072-29.4912 5.3248t-30.72 3.584a473.1904 473.1904 0 0 1-62.0544 1.024 283.4432 283.4432 0 0 1-60.2112-2.3552 312.832 312.832 0 0 1-58.5728-14.5408 274.7392 274.7392 0 0 1-209.5104-262.144 271.5648 271.5648 0 0 1 6.144-60.5184 317.44 317.44 0 0 1 12.5952-40.96C215.04 356.0448 296.96 274.1248 403.1488 261.0176a384.3072 384.3072 0 0 1 38.7072-6.3488c12.9024-1.4336 25.8048-2.2528 38.4-2.3552s24.6784-0.8192 36.9664 0A471.04 471.04 0 0 1 696.32 294.7072q12.4928 6.0416 24.3712 13.0048a319.1808 319.1808 0 0 1 44.6464 31.744c23.1424 26.8288 53.8624 47.3088 67.6864 84.7872 3.3792 15.0528 12.288 32.3584 14.7456 52.224z" fill="#FAB414" p-id="1491"></path><path d="M385.536 480.4608c1.4336 14.9504-8.8064 45.4656 11.776 45.4656 30.72 0 30.72-30.72 20.48-51.2a16.5888 16.5888 0 0 0-32.256 5.3248zM578.3552 480.3584c3.9936 15.0528 3.9936 45.4656 14.2336 45.4656 20.48 0 30.72-30.72 20.48-51.2s-30.72-10.24-34.816 5.3248zM566.5792 561.7664a53.4528 53.4528 0 0 1-20.48 14.848 32.768 32.768 0 0 1-26.9312-8.2944c-8.4992-11.8784-18.7392-16.2816-29.9008-11.4688A31.4368 31.4368 0 0 1 464.896 573.44c-27.7504-1.3312-36.7616-16.5888-47.104-6.4512s10.24 20.48 22.7328 26.3168a51.2 51.2 0 0 0 31.232 3.584 53.1456 53.1456 0 0 0 27.9552-15.6672 93.3888 93.3888 0 0 0 13.7216 14.336 34.4064 34.4064 0 0 0 19.456 7.2704 45.3632 45.3632 0 0 0 50.176-26.2144c11.5712-12.0832-5.12-25.7024-16.4864-14.848z" fill="#3A3635" p-id="1492"></path><path d="M315.6992 551.8336c-5.5296 4.8128-11.0592 10.24-16.9984 15.2576-2.7648-3.8912-5.8368-11.6736-7.8848-14.1312-14.2336-16.9984-24.576-6.8608-30.72 1.8432a84.8896 84.8896 0 0 1-13.6192 14.9504c-11.0592 17.1008 9.5232 17.1008 21.6064 12.5952A41.5744 41.5744 0 0 0 276.48 573.44l1.2288 1.9456a59.0848 59.0848 0 0 0 7.8848 11.4688 16.2816 16.2816 0 0 0 12.4928 5.12 24.9856 24.9856 0 0 0 12.288-4.8128c7.0656-10.24 17.3056-10.24 21.6064-34.6112a12.0832 12.0832 0 0 0-16.2816-0.7168zM741.9904 551.8336c-2.7648 2.3552-5.5296 5.0176-8.2944 7.68s-5.7344 5.2224-8.704 7.5776c-2.6624-3.8912-5.7344-11.6736-8.192-14.1312-5.3248-6.8608-15.5648-16.9984-30.72 1.8432a83.7632 83.7632 0 0 1-13.6192 14.9504c-12.3904 17.1008-2.048 27.2384 21.6064 12.5952a40.96 40.96 0 0 0 8.704-9.0112l1.2288 1.9456a59.0848 59.0848 0 0 0 7.8848 11.4688 16.0768 16.0768 0 0 0 12.4928 5.12c17.92-5.0176 38.5024-15.1552 33.8944-39.424a12.1856 12.1856 0 0 0-16.2816-0.6144z" fill="#F15921" p-id="1493"></path><path d="M744.1408 292.6592c66.3552-30.72 57.856 21.504 70.2464 64.1024a4.5056 4.5056 0 0 0 8.4992 0c13.0048-36.2496 6.2464-93.2864-47.4112-98.2016a66.4576 66.4576 0 0 0-29.0816 6.8608 76.6976 76.6976 0 0 0-24.3712 18.8416c-2.3552 9.216 6.8608 11.4688 22.1184 8.0896zM307.2 294.2976c-16.896-40.96-90.0096-50.4832-108.2368-13.9264-9.1136 27.4432-9.1136 73.1136 18.3296 73.1136s-18.3296-45.6704 9.1136-73.1136c36.5568-27.4432 54.8864 27.4432 80.7936 13.9264zM531.0464 546.7136c-3.2768 22.6304-47.7184 34.6112-57.9584 3.8912 0-20.48 8.704-23.2448 28.5696-23.8592 16.1792 0 29.3888 8.9088 29.3888 19.968z" fill="#3A3635" p-id="1494"></path></svg>