<?xml version="1.0" standalone="no"?><!DOCTYPE svg PUBLIC "-//W3C//DTD SVG 1.1//EN" "http://www.w3.org/Graphics/SVG/1.1/DTD/svg11.dtd"><svg t="1607158094727" class="icon" viewBox="0 0 1365 1024" version="1.1" xmlns="http://www.w3.org/2000/svg" p-id="11532" xmlns:xlink="http://www.w3.org/1999/xlink" width="266.6015625" height="200"><defs><style type="text/css"></style></defs><path d="M1194.622737 0H170.622737A170.666667 170.666667 0 0 0 0 170.666667v682.666666a170.666667 170.666667 0 0 0 170.666667 170.666667h1024a170.666667 170.666667 0 0 0 170.666666-170.666667V170.666667A170.666667 170.666667 0 0 0 1194.622737 0z m36.417675 220.702531l-439.296439 365.23106a170.666667 170.666667 0 0 1-218.46212 0l-439.296439-365.23106A57.108537 57.108537 0 1 1 206.820764 133.106821l439.296439 365.23106a57.108537 57.108537 0 0 0 72.83535 0l439.296439-365.23106a57.108537 57.108537 0 0 1 72.835349 87.59571z" fill="#ffffff" p-id="11533" data-spm-anchor-id="a313x.7781069.0.i10" class="selected"></path></svg>