<?xml version="1.0" standalone="no"?><!DOCTYPE svg PUBLIC "-//W3C//DTD SVG 1.1//EN" "http://www.w3.org/Graphics/SVG/1.1/DTD/svg11.dtd"><svg t="1607104971898" class="icon" viewBox="0 0 1194 1024" version="1.1" xmlns="http://www.w3.org/2000/svg" p-id="8787" xmlns:xlink="http://www.w3.org/1999/xlink" width="233.203125" height="200"><defs><style type="text/css"></style></defs><path d="M617.002667 256H65.664a64 64 0 1 1 0-128h551.381333a64 64 0 1 1-0.042666 128zM981.333333 426.666667c-117.632 0-213.333333-95.701333-213.333333-213.333334s95.701333-213.333333 213.333333-213.333333 213.333333 95.701333 213.333334 213.333333-95.701333 213.333333-213.333334 213.333334z m0-341.333334c-70.570667 0-128 57.429333-128 128s57.429333 128 128 128 128-57.429333 128-128-57.429333-128-128-128zM1081.258667 640H70.741333a64 64 0 1 1 0-128h1010.517334a64 64 0 0 1 0 128zM1081.258667 1024H70.741333a64 64 0 1 1 0-128h1010.517334a64 64 0 0 1 0 128z" fill="#f1b643" p-id="8788" data-spm-anchor-id="a313x.7781069.0.i2" class="selected"></path></svg>